<svg xmlns="http://www.w3.org/2000/svg" viewBox="0 0 1333.35 1234.43" shape-rendering="geometricPrecision" text-rendering="geometricPrecision" image-rendering="optimizeQuality" fill-rule="evenodd" clip-rule="evenodd"><path d="M923.15 531.47v-89.72c4.07-17.33 11.66-22.49 20.24-24.08 23.19-3.61 20.65 108.43-20.24 113.79zm-437 279.75l99.89 293.77 50.22-174.33-24.62-26.94c-11.11-16.18-13.53-30.36-7.37-42.55 13.33-26.38 40.93-21.46 66.71-21.46 27.02 0 60.37-5.12 68.82 28.7 2.83 11.3-.73 23.15-8.65 35.32l-24.63 26.95L756.75 1105l90.44-293.77c65.26 58.71 294.9 70.5 366.76 110.57 22.73 12.67 43.26 28.81 59.77 50.61 25.05 33.08 40.42 76.3 44.61 131.14l15.01 66.4c-3.65 38.82-25.67 61.19-69 64.49H69c-43.33-3.3-65.36-25.67-69-64.49l15-66.4c4.2-54.84 19.56-98.05 44.62-131.14 16.52-21.82 37.04-37.94 59.77-50.61 71.86-40.08 301.49-51.86 366.76-110.57zM357.01 226.49v-57.41c8.3-68.66 40.28-96.24 92.75-88.34C499.72 28.5 570.21-.64 667.29.13 775.41-2 867.59 23.22 934.52 91.77c35.2 35.06 50.19 89.36 41.11 166.59 1.87 75.75 10.21 108.6-14.35 121.93-.13 2.11-.19 4.11-.35 6.24l-16.95 10.59c13.67-1.02 23.27 7.5 29.01 21.95 2.86 7.21 4.68 16.09 5.41 25.72.69 8.99.5 19-.61 29.1-4.04 36.74-20.92 75.07-52.23 79.67-1.37.2-2.73.22-4.04.09v4.68c0 .21-.01.42-.02.62 2.08 51.31-25.06 108.29-68.8 153.95-79.63 83.16-210.45 124.51-324.03 30.35-19.74-16.37-42.72-32.6-60.78-57.95.19-.19.39-.39.59-.56l-.38-.37c-29.24-27.26-43.13-40.19-54.76-96.04a16.92 16.92 0 01-.35-3.37h-.04v-31.45c-1.66.28-3.39.31-5.14.06-31.31-4.59-48.19-42.92-52.22-79.66-1.12-10.11-1.32-20.11-.62-29.11.73-9.63 2.56-18.51 5.42-25.72 6.22-15.69 17-24.38 32.58-21.49 7.47 1.39 14.28 5.25 19.98 11.74v-12.77l-12.74-7.15c-1.54-10.31-1.78-20.83-1.04-31.45-22.79-38.13-40.51-101.87-42.15-131.48zm539.67 154.56c-14.99-41.93-43.59-73.4-79.6-95.43-30.26-13.11-56.74-24.19-81.87-32.17-60.99-13.6-128.08-9.67-183.43 8.85-14.74 5.79-30.39 12.78-47.18 21.11-35.37 20.72-60.68 49.42-68.16 84.78v216.76c12.61 60.43 20.63 58.02 59.36 95.93l67.16 65.75c12.14 10.01 25.8 15.88 40.34 19.28 49.7 11.67 154.21 7.04 193.4-34.13 58.43-56.71 104.06-82.78 99.99-173.47V381.03zM720.1 391.13c-17.74 6.68-21.46 21.5-11.57 27.04 11.63 6.53 26.33-3.22 37.67-6.85 29.62-9.49 64.93-10.56 90.54 5.51 6.81 4.26 13.76 9.8 20.87 16.51-2.64-9.35-6.69-17.93-12.65-25.47-25.73-32.56-90.45-34.43-124.85-16.74zm-111.88 0c17.73 6.68 21.45 21.5 11.57 27.04-11.62 6.53-26.33-3.22-37.66-6.85-29.62-9.49-64.93-10.56-90.55 5.51-6.8 4.26-13.76 9.8-20.87 16.51 2.64-9.35 6.69-17.93 12.65-25.47 25.74-32.56 90.45-34.43 124.86-16.74zm-92.41 63.55c-3.81 1.49-7.96-.82-9.28-5.15-1.31-4.34.73-9.07 4.54-10.56 29.29-11.44 59.12-10.66 88.5-.03 3.83 1.38 5.95 6.03 4.74 10.39-1.2 4.35-5.31 6.76-9.13 5.38-4.87-1.76-9.73-3.22-14.61-4.39.49 1.76.75 3.6.75 5.51 0 11.3-9.16 20.47-20.46 20.47-11.32 0-20.46-9.17-20.46-20.47 0-2.78.55-5.43 1.56-7.84-8.69 1.08-17.41 3.28-26.13 6.69h-.01zm237.58-6.12a20.37 20.37 0 00-1.33 7.28c0 11.3 9.17 20.47 20.47 20.47 11.3 0 20.47-9.17 20.47-20.47 0-3.24-.76-6.31-2.11-9.04 8.94.97 17.96 2.93 27.04 5.9 3.88 1.26 7.92-1.3 9.02-5.7 1.11-4.41-1.14-9-5.02-10.26-14.78-4.83-29.53-7.21-44.25-7.2-14.68.02-29.26 2.46-43.7 7.24-3.86 1.26-6.08 5.87-4.97 10.25 1.11 4.39 5.16 6.92 9.03 5.65 5.11-1.69 10.23-3.06 15.35-4.11v.01zM641.33 588.17c-4.01-3.37-4.55-9.35-1.19-13.37s9.35-4.55 13.37-1.19c4.72 3.97 9.28 6.07 13.63 6.13 4.39.06 9.13-1.94 14.27-6.16 4.04-3.32 10-2.74 13.33 1.31 3.32 4.04 2.74 10-1.31 13.32-8.73 7.19-17.58 10.59-26.52 10.47-8.98-.11-17.5-3.71-25.59-10.5zm-29.8 61.61c-4.87-2.59-6.72-8.64-4.14-13.5 2.59-4.87 8.63-6.73 13.51-4.14 15.36 8.15 30.49 12.31 45.36 12.35 14.86.03 29.76-4.03 44.67-12.28 4.83-2.65 10.89-.88 13.54 3.95 2.65 4.83.89 10.89-3.94 13.54-17.86 9.87-35.96 14.73-54.27 14.68-18.3-.04-36.55-4.96-54.73-14.6zm-201.32-118.3v-89.72c-4.08-17.32-11.66-22.48-20.24-24.08-23.08-3.57-20.9 108.36 20.24 113.79z"/></svg>